HIERARCHY
ROOT hip
{
	OFFSET 0.000000 0.000000 0.000000 
	CHANNELS 6 Xposition Yposition Zposition Xrotation Zrotation Yrotation
	JOINT abdomen
	{
		OFFSET 0.000000 3.402643 0.000000 
		CHANNELS 3 Xrotation Zrotation Yrotation
		JOINT chest
		{
			OFFSET 0.000000 8.438565 -0.680529 
			CHANNELS 3 Xrotation Zrotation Yrotation
			JOINT neck
			{
				OFFSET 0.000000 10.207942 -0.272212 
				CHANNELS 3 Xrotation Zrotation Yrotation
				JOINT head
				{
					OFFSET 0.000000 3.130431 0.000000 
					CHANNELS 3 Xrotation Zrotation Yrotation
					End Site
					{
						OFFSET 0.000000 3.130435 0.000000 
					}
				}
			}
			JOINT lCollar
			{
				OFFSET 3.470700 6.669187 -0.816635 
				CHANNELS 3 Yrotation Zrotation Xrotation
				JOINT lShldr
				{
					OFFSET 3.198488 0.000000 0.000000 
					CHANNELS 3 Zrotation Yrotation Xrotation
					JOINT lForeArm
					{
						OFFSET 10.139888 0.000000 0.000000 
						CHANNELS 3 Yrotation Zrotation Xrotation
						JOINT lHand
						{
							OFFSET 8.370511 0.000000 0.000000 
							CHANNELS 3 Zrotation Yrotation Xrotation
							End Site
							{
								OFFSET 4.083176 0.000000 0.000000 
							}
						}
					}
				}
			}
			JOINT rCollar
			{
				OFFSET -3.470700 6.669187 -0.816635 
				CHANNELS 3 Yrotation Zrotation Xrotation
				JOINT rShldr
				{
					OFFSET -3.198488 0.000000 0.000000 
					CHANNELS 3 Zrotation Yrotation Xrotation
					JOINT rForeArm
					{
						OFFSET -10.139888 0.000000 0.000000 
						CHANNELS 3 Yrotation Zrotation Xrotation
						JOINT rHand
						{
							OFFSET -8.370511 0.000000 0.000000 
							CHANNELS 3 Zrotation Yrotation Xrotation
							End Site
							{
								OFFSET -4.083176 0.000000 0.000000 
							}
						}
					}
				}
			}
		}
	}
	JOINT lThigh
	{
		OFFSET 5.308129 -1.633274 1.361059 
		CHANNELS 3 Xrotation Zrotation Yrotation
		JOINT lShin
		{
			OFFSET -2.041588 -20.007561 0.000000 
			CHANNELS 3 Xrotation Zrotation Yrotation
			JOINT lFoot
			{
				OFFSET 0.000000 -19.190928 -1.224953 
				CHANNELS 3 Xrotation Yrotation Zrotation
				End Site
				{
					OFFSET 0.000000 -2.449906 4.627600 
				}
			}
		}
	}
	JOINT rThigh
	{
		OFFSET -5.308129 -1.633274 1.361059 
		CHANNELS 3 Xrotation Zrotation Yrotation
		JOINT rShin
		{
			OFFSET 2.041588 -20.007561 0.000000 
			CHANNELS 3 Xrotation Zrotation Yrotation
			JOINT rFoot
			{
				OFFSET 0.000000 -19.190928 -1.224953 
				CHANNELS 3 Xrotation Yrotation Zrotation
				End Site
				{
					OFFSET 0.000000 -2.449906 4.627600 
				}
			}
		}
	}
}
MOTION
Frames: 13
Frame Time: 0.033333
0.506708 45.253880 -0.486495 -2.853430 0.556493 4.529740 -0.019530 -0.019644 -0.019419 4.023440 -0.019522 -0.000592 5.478650 -0.289108 -0.042420 -12.956500 4.450250 -5.763350 0.650555 -16.112297 -3.128959 -44.569302 3.561620 50.395500 -7.141700 0.554567 -16.176701 8.090150 4.702770 -15.048400 -22.550739 14.291073 -4.001381 41.586300 -0.273359 63.189499 10.136600 -0.295049 -2.498510 -8.172838 -4.699541 -15.048458 -1.362061 0.203698 2.343282 4.448741 -0.185764 6.312432 -0.191251 0.081176 -2.310091 3.317216 -2.604876 -22.165825 7.497901 0.376710 -15.027040 -5.707536 -0.331156 6.156821 
0.506902 45.259846 -0.536193 -2.560770 0.614709 4.513080 -0.019530 -0.019644 -0.019419 4.023440 -0.019913 -0.010350 5.478730 -0.365988 -0.056326 -13.137100 4.658860 -5.497080 0.508929 -16.376343 -3.525943 -44.323002 3.565060 50.379700 -7.027330 0.547608 -15.807300 8.090150 4.702770 -15.048400 -22.446690 14.264909 -4.354858 41.368500 -0.166842 63.699699 10.189900 -0.294987 -2.341290 -8.386772 -4.695848 -15.048511 -1.777803 0.125037 2.299430 4.546213 -0.185057 6.298721 -0.081528 0.111998 -2.287172 2.928834 -2.724596 -22.073166 7.561004 0.384410 -15.140985 -5.694596 -0.323667 6.159893 
0.497433 45.261868 -0.574717 -2.356200 0.672890 4.488130 -0.019530 -0.019644 -0.019419 4.023440 -0.019913 -0.010350 5.478830 -0.443677 -0.060501 -13.409600 4.609770 -5.663240 0.489040 -16.561932 -3.793575 -44.172600 3.485510 50.548199 -6.936990 0.541742 -15.463900 8.090150 4.702770 -15.048400 -22.314476 14.259661 -4.627718 41.245602 -0.229721 63.343300 10.174400 -0.288481 -2.197180 -8.756818 -4.692079 -15.048546 -2.029516 0.038993 2.087583 4.572616 -0.185314 6.473448 -0.038936 0.109851 -2.266826 2.641725 -2.787307 -22.010368 7.640428 0.384976 -15.166852 -5.756817 -0.307967 6.125297 
0.488823 45.257481 -0.565653 -2.307810 0.682390 4.467600 -0.019530 -0.019644 -0.019419 4.023440 -0.020304 -0.020108 5.478850 -0.462897 -0.063978 -13.422600 4.565440 -5.527010 0.621424 -16.542049 -3.943138 -44.234600 3.422610 50.771500 -6.900580 0.539617 -15.138100 8.090150 4.702770 -15.048400 -22.275021 14.172241 -4.773271 41.243000 -0.318564 63.198399 10.189500 -0.283546 -1.996230 -9.276412 -4.688238 -15.048573 -2.086330 0.028879 1.993131 4.614413 -0.184856 6.540158 -0.046783 0.092834 -2.137536 2.602940 -2.836824 -22.055790 7.683892 0.386620 -15.038009 -5.870023 -0.332718 6.169666 
0.478831 45.253551 -0.555771 -2.328570 0.632937 4.411850 -0.019530 -0.019644 -0.019419 4.023440 -0.019913 -0.010350 5.478770 -0.404427 -0.063280 -13.396100 4.605620 -5.390400 0.651526 -16.405245 -4.004653 -44.356899 3.524370 50.709202 -6.957040 0.529524 -14.751900 8.090150 4.702770 -15.048400 -22.209303 14.123833 -4.857923 41.293301 -0.418410 63.036301 10.206400 -0.286959 -2.096800 -9.938992 -4.684327 -15.048590 -2.140924 0.096716 2.107799 4.788118 -0.185472 6.474459 -0.173235 0.099354 -2.229897 2.692076 -2.741308 -21.994339 7.530119 0.374276 -15.084220 -5.887905 -0.348020 6.216582 
0.460867 45.260181 -0.538344 -2.319840 0.603092 4.364510 -0.019530 -0.019644 -0.019419 4.023440 -0.019913 -0.010350 5.478740 -0.375598 -0.058065 -13.497800 4.466350 -5.453950 0.559765 -16.356684 -4.049470 -44.396900 3.619420 50.653400 -6.999210 0.521209 -14.396000 8.090150 4.702770 -15.048400 -22.157345 14.110581 -4.918427 41.213902 -0.449166 62.990200 10.377200 -0.298089 -2.276790 -10.737996 -4.680347 -15.048593 -2.168305 0.166401 2.161819 4.855350 -0.204363 6.471212 -0.211695 0.088448 -2.255208 2.760178 -2.672756 -21.906637 7.403625 0.374315 -15.109225 -5.851653 -0.322778 6.205660 
0.442887 45.257824 -0.520950 -2.381750 0.542729 4.212170 -0.019530 -0.019644 -0.019419 4.023440 -0.019522 -0.000592 5.478680 -0.327548 -0.049373 -13.624400 4.006800 -5.596340 0.599997 -16.200329 -3.981462 -44.506001 3.698390 50.507301 -7.046240 0.519714 -14.070300 8.090150 4.702770 -15.048400 -22.110807 14.051105 -4.845487 41.232899 -0.438692 62.909801 10.595200 -0.301932 -2.155510 -11.666864 -4.676303 -15.048587 -1.998610 0.214492 2.093530 4.710400 -0.185423 6.741361 -0.222191 0.083877 -2.319731 2.836367 -2.592737 -21.915833 7.355258 0.374467 -14.886655 -5.831010 -0.306546 6.105942 
0.408033 45.282192 -0.489827 -2.512710 0.589294 4.025330 -0.019530 -0.019644 -0.019419 4.023440 -0.019913 -0.010350 5.478740 -0.375598 -0.058065 -13.645600 3.695120 -5.605770 0.661178 -16.248978 -3.866914 -44.486401 3.768620 50.458900 -7.098330 0.516304 -13.779400 8.090150 4.702770 -15.048400 -22.099815 13.942533 -4.753917 41.216702 -0.404873 62.808800 10.687100 -0.304493 -2.361850 -12.719035 -4.672195 -15.048572 -1.773153 0.213956 2.303422 4.603953 -0.185490 6.775001 -0.090720 0.095157 -2.460787 3.010895 -2.610677 -21.882019 7.251120 0.375783 -14.744643 -5.795530 -0.333779 6.050821 
0.385067 45.305897 -0.459622 -2.602310 0.637130 3.945340 -0.019530 -0.019644 -0.019419 4.023440 -0.020304 -0.020108 5.478800 -0.424457 -0.057025 -13.770500 3.771710 -5.766480 0.560018 -16.444571 -3.794731 -44.329601 3.780430 50.653702 -7.092960 0.507412 -13.483800 8.090150 4.702770 -15.048400 -22.186287 13.897787 -4.700583 41.245998 -0.359223 62.347301 10.613900 -0.301669 -2.532370 -13.887948 -4.668027 -15.048545 -1.717057 0.185469 2.445207 4.678820 -0.184984 6.684031 -0.048523 0.101067 -2.489582 3.181764 -2.626175 -21.808626 7.134723 0.376173 -14.778974 -5.701878 -0.324131 6.042789 
0.379180 45.312649 -0.447089 -2.701620 0.626473 3.868850 -0.019530 -0.019644 -0.019419 4.023440 -0.019913 -0.010350 5.478770 -0.405237 -0.053548 -13.901300 3.762160 -6.032530 0.509287 -16.513056 -3.612649 -44.286999 3.747020 50.651600 -6.997760 0.497312 -13.122600 8.090150 4.702770 -15.048400 -22.312778 13.849240 -4.518477 41.325001 -0.255388 62.005001 10.561000 -0.301062 -2.667750 -15.167046 -4.663802 -15.048512 -1.594515 0.184222 2.240653 4.697869 -0.194610 6.936980 0.032211 0.094350 -2.313998 3.334219 -2.582668 -21.700500 7.028605 0.375336 -14.822690 -5.598622 -0.334756 6.068250 
0.332662 45.324436 -0.445547 -2.696720 0.672455 3.641140 -0.019530 -0.019644 -0.019419 4.023440 -0.020304 -0.020108 5.478850 -0.462897 -0.063978 -13.924000 3.312450 -5.885060 0.489189 -16.620523 -3.890743 -44.235199 3.958080 50.555500 -6.822440 0.485838 -12.687000 8.090150 4.702770 -15.048400 -22.261814 13.844971 -4.787666 41.313702 -0.326619 62.054401 10.458900 -0.302748 -2.811350 -16.549765 -4.659521 -15.048470 -1.538348 0.155349 2.137315 4.612226 -0.194896 7.253069 0.180771 0.094269 -2.260821 3.270494 -2.636091 -21.511309 7.064688 0.375541 -14.742917 -5.606234 -0.325002 5.998122 
0.284333 45.320049 -0.427442 -2.703240 0.707707 3.336140 -0.019530 -0.019644 -0.019419 4.023440 -0.020695 -0.029866 5.478940 -0.520556 -0.074408 -13.955600 3.096460 -5.523750 0.631997 -16.659201 -4.124660 -44.274399 4.127800 50.352600 -6.710890 0.471807 -12.173200 8.090150 4.702770 -15.048400 -22.166315 14.000128 -5.037048 41.077000 -0.341600 62.210499 10.432800 -0.307941 -3.012150 -18.029541 -4.655184 -15.048418 -1.451472 0.146063 2.248456 4.550136 -0.225407 7.479592 0.146269 0.101087 -2.383738 3.206408 -2.680173 -21.301708 7.123062 0.375551 -14.730624 -5.691021 -0.320336 5.969730 
0.226625 45.313313 -0.318071 -2.629710 0.705003 3.120540 -0.019530 -0.019644 -0.019419 4.023440 -0.020695 -0.029866 5.478960 -0.530166 -0.076146 -14.112800 2.918520 -5.329300 0.663155 -16.825111 -4.495279 -44.083199 4.249560 50.494801 -6.526260 0.461897 -11.794100 8.090150 4.702770 -15.048400 -22.174116 14.273372 -5.435301 40.869701 -0.302655 62.578899 10.136200 -0.304542 -3.128190 -19.599815 -4.650795 -15.048356 -1.414494 0.195161 2.699365 4.514050 -0.204662 7.266608 0.090312 0.098797 -2.426771 3.207908 -2.641940 -21.209162 7.063241 0.365297 -14.684840 -5.746704 -0.326686 6.021145 
